# xmcd CD database file
#
# Track frame offsets:
#	150
#	6883
#	31145
#	60317
#	89374
#	114257
#	141530
#	180684
#	224315
#	258371
#	281066
#	308219
#
# Disc length: 4213 seconds
#
# Revision: 0
# Processed by: cddbd v1.5.1PL0 Copyright (c) Steve Scherf et al.
# Submitted via: CDex 1.60beta1
#
DISCID=a610730c
DTITLE=GABA AGONIST (ならしのてくのくらーと)  - ミント・エレクトリック！
DYEAR=1900
DGENRE=未分類 (日本)
TTITLE0=Welcome
TTITLE1=Eternal Love (All-in-Wonder Remix)
TTITLE2=Kiss me - Kiss you
TTITLE3=なによそれ！
TTITLE4=Telepath TV (Telepath Bleep Remix)
TTITLE5=Taste me up
TTITLE6=憧れのミルフィーユと姉さま
TTITLE7=Fearless Dreamer
TTITLE8=Cowards to ALL!
TTITLE9=Crystal Doll (Remix)
TTITLE10=Eternal Love (Nature of Love Remix)
TTITLE11=Outro
EXTD=
EXTT0=
EXTT1=
EXTT2=
EXTT3=
EXTT4=
EXTT5=
EXTT6=
EXTT7=
EXTT8=
EXTT9=
EXTT10=
EXTT11=
PLAYORDER=
